<svg width="20" height="20" viewBox="0 0 20 20" fill="none" xmlns="http://www.w3.org/2000/svg">
<path d="M5.53505 0.30018C5.5861 -0.100061 6.1658 -0.10006 6.21686 0.300182L6.77547 4.67902C6.79528 4.83433 6.91757 4.95662 7.07289 4.97644L11.4517 5.53505C11.852 5.5861 11.852 6.1658 11.4517 6.21686L7.07289 6.77547C6.91757 6.79528 6.79528 6.91757 6.77547 7.07289L6.21686 11.4517C6.1658 11.852 5.5861 11.852 5.53505 11.4517L4.97644 7.07289C4.95662 6.91757 4.83433 6.79528 4.67902 6.77547L0.30018 6.21686C-0.100061 6.1658 -0.10006 5.5861 0.300182 5.53505L4.67902 4.97644C4.83433 4.95662 4.95662 4.83433 4.97644 4.67902L5.53505 0.30018Z" fill="#FF4625"/>
<path d="M5.53505 8.54827C5.5861 8.14803 6.1658 8.14803 6.21686 8.54827L6.77547 12.9271C6.79528 13.0824 6.91757 13.2047 7.07289 13.2245L11.4517 13.7831C11.852 13.8342 11.852 14.4139 11.4517 14.465L7.07289 15.0236C6.91757 15.0434 6.79528 15.1657 6.77547 15.321L6.21686 19.6998C6.1658 20.1001 5.5861 20.1001 5.53505 19.6998L4.97644 15.321C4.95662 15.1657 4.83433 15.0434 4.67902 15.0236L0.30018 14.465C-0.100061 14.4139 -0.10006 13.8342 0.300182 13.7831L4.67902 13.2245C4.83433 13.2047 4.95662 13.0824 4.97644 12.9271L5.53505 8.54827Z" fill="#FF4625"/>
<path d="M13.7831 0.30018C13.8342 -0.100061 14.4139 -0.10006 14.465 0.300182L15.0236 4.67902C15.0434 4.83433 15.1657 4.95662 15.321 4.97644L19.6998 5.53505C20.1001 5.5861 20.1001 6.1658 19.6998 6.21686L15.321 6.77547C15.1657 6.79528 15.0434 6.91757 15.0236 7.07289L14.465 11.4517C14.4139 11.852 13.8342 11.852 13.7831 11.4517L13.2245 7.07289C13.2047 6.91757 13.0824 6.79528 12.9271 6.77547L8.54827 6.21686C8.14803 6.1658 8.14803 5.5861 8.54827 5.53505L12.9271 4.97644C13.0824 4.95662 13.2047 4.83433 13.2245 4.67902L13.7831 0.30018Z" fill="#FF4625"/>
<path d="M13.7831 8.54827C13.8342 8.14803 14.4139 8.14803 14.465 8.54827L15.0236 12.9271C15.0434 13.0824 15.1657 13.2047 15.321 13.2245L19.6998 13.7831C20.1001 13.8342 20.1001 14.4139 19.6998 14.465L15.321 15.0236C15.1657 15.0434 15.0434 15.1657 15.0236 15.321L14.465 19.6998C14.4139 20.1001 13.8342 20.1001 13.7831 19.6998L13.2245 15.321C13.2047 15.1657 13.0824 15.0434 12.9271 15.0236L8.54827 14.465C8.14803 14.4139 8.14803 13.8342 8.54827 13.7831L12.9271 13.2245C13.0824 13.2047 13.2047 13.0824 13.2245 12.9271L13.7831 8.54827Z" fill="#FF4625"/>
</svg>
