<svg width="48" height="48" viewBox="0 0 48 48" fill="none" xmlns="http://www.w3.org/2000/svg">
<g clip-path="url(#clip0_16316_684)">
<path d="M30.4371 17.7811C30.4371 18.3457 29.9878 18.8034 29.4336 18.8034H15.0503C14.4962 18.8034 14.0469 18.3457 14.0469 17.7811C14.0469 17.2165 14.4962 16.7588 15.0503 16.7588H29.4336C29.9878 16.7588 30.4371 17.2165 30.4371 17.7811Z" fill="#FF4625"/>
<path d="M15.0503 31.3279C14.4962 31.3279 14.0469 30.8702 14.0469 30.3055C14.0469 29.741 14.4962 29.2832 15.0503 29.2832H21.2385C21.7927 29.2832 22.242 29.741 22.242 30.3055C22.242 30.8702 21.7927 31.3279 21.2385 31.3279H15.0503Z" fill="#FF4625"/>
<path fill-rule="evenodd" clip-rule="evenodd" d="M41.561 15.6838C41.561 13.0244 40.1884 10.561 37.9472 9.19776L24.5811 1.06798C22.24 -0.356007 19.3206 -0.355993 16.9794 1.06802L3.61374 9.19776C1.37253 10.561 8.27736e-07 13.0244 7.13634e-07 15.6837L0 32.3166C-1.141e-07 34.9759 1.37258 37.4394 3.61384 38.8026L16.9795 46.9321C19.3206 48.356 22.2399 48.356 24.581 46.9321L37.947 38.8026C40.1884 37.4394 41.561 34.9759 41.561 32.3166V25.3633H46.9965C47.5507 25.3633 48 24.9055 48 24.3409C48 23.7763 47.5507 23.3186 46.9965 23.3186H41.561V15.6838ZM39.2195 23.3186V15.6838C39.2195 13.8642 38.2804 12.1786 36.7469 11.2459L23.3809 3.11619C21.779 2.14189 19.7815 2.1419 18.1797 3.11622L4.81402 11.2459C3.28056 12.1786 2.34146 13.8642 2.34146 15.6837V32.3166C2.34146 34.1362 3.28059 35.8217 4.8141 36.7544L18.1798 44.8838C19.7816 45.8581 21.779 45.8581 23.3808 44.8838L36.7469 36.7544C38.2804 35.8217 39.2195 34.1362 39.2195 32.3166V25.3633H15.0522C14.4981 25.3633 14.0488 24.9055 14.0488 24.3409C14.0488 23.7763 14.4981 23.3186 15.0522 23.3186H39.2195Z" fill="#FF4625"/>
</g>
<defs>
<clipPath id="clip0_16316_684">
<rect width="48" height="48" fill="white"/>
</clipPath>
</defs>
</svg>
