<svg width="48" height="48" viewBox="0 0 48 48" fill="none" xmlns="http://www.w3.org/2000/svg">
<path fill-rule="evenodd" clip-rule="evenodd" d="M8.51126 15.0512C8.63864 14.9262 8.81022 14.8566 8.98868 14.8574C9.16715 14.8583 9.33806 14.9295 9.46425 15.0557C9.59044 15.1819 9.66171 15.3528 9.66256 15.5313C9.6634 15.7097 9.59376 15.8813 9.46877 16.0087L6.2687 19.2087C6.25183 19.2256 6.24236 19.2486 6.24236 19.2725C6.24236 19.2964 6.25183 19.3194 6.2687 19.3364L9.46867 22.5363C9.59366 22.6637 9.66331 22.8353 9.66246 23.0137C9.66161 23.1922 9.59034 23.3631 9.46415 23.4893C9.33796 23.6155 9.16705 23.6868 8.98859 23.6876C8.81013 23.6885 8.63855 23.6188 8.51117 23.4938L4.76861 19.7513C4.64164 19.6243 4.57031 19.4521 4.57031 19.2725C4.57031 19.0929 4.64164 18.9207 4.76861 18.7938L8.51126 15.0512ZM36.9629 16.0087C36.8379 15.8813 36.7682 15.7097 36.7691 15.5313C36.7699 15.3528 36.8412 15.1819 36.9674 15.0557C37.0936 14.9295 37.2645 14.8583 37.443 14.8574C37.6214 14.8566 37.793 14.9262 37.9204 15.0512L41.6629 18.7938C41.7899 18.9207 41.8612 19.0929 41.8612 19.2725C41.8612 19.4521 41.7899 19.6243 41.6629 19.7513L37.9204 23.4938C37.793 23.6188 37.6214 23.6885 37.443 23.6876C37.2645 23.6868 37.0936 23.6155 36.9674 23.4893C36.8412 23.3631 36.7699 23.1922 36.7691 23.0137C36.7682 22.8353 36.8379 22.6637 36.9629 22.5363L40.1628 19.3364C40.1797 19.3194 40.1892 19.2964 40.1892 19.2725C40.1892 19.2486 40.1797 19.2256 40.1628 19.2087L36.9629 16.0087ZM31.6434 22.082C31.3908 22.3345 31.222 22.7505 31.2212 23.1078L31.2047 30.1105L31.2007 36.7709C31.2009 36.7976 31.1924 36.8237 31.1765 36.8451C31.1606 36.8666 31.1382 36.8823 31.1126 36.8899C31.087 36.8975 31.0596 36.8966 31.0346 36.8873C31.0096 36.878 30.9882 36.8608 30.9738 36.8383L30.6705 36.3756L30.6695 36.3763L28.7356 33.4176C28.6876 33.3444 28.6323 33.2763 28.5706 33.2143L28.2446 32.8868C28.2271 32.8691 28.2057 32.8602 28.1808 32.8602C28.1559 32.8602 28.1345 32.869 28.1169 32.8866L28.1148 32.8886C27.9533 32.8057 27.7817 32.7443 27.6043 32.7058C27.2796 32.6356 26.9146 32.6373 26.6272 32.8251C26.5802 32.8555 26.5363 32.8905 26.4964 32.9298C26.4903 32.9358 26.4837 32.9412 26.4765 32.9459L26.091 33.1989C26.071 33.2121 26.0571 33.2327 26.0522 33.2561C26.0473 33.2795 26.052 33.3039 26.0651 33.3239L26.0683 33.3288C25.9237 33.5204 25.8233 33.7415 25.7741 33.9764C25.7297 34.1858 25.7271 34.402 25.7664 34.6125C25.8056 34.823 25.886 35.0237 26.0029 35.2031L30.6862 42.3678C30.6907 42.3747 30.6946 42.3819 30.6976 42.3895L30.7008 42.3971L30.702 42.3999L30.7053 42.4074C31.3934 43.9209 32.62 44.9551 34.1836 45.4699C35.19 45.8013 36.2749 45.9008 37.3292 45.8211C38.3504 45.7438 39.3848 45.496 40.3197 45.0755C41.4148 44.5829 42.5904 43.7462 42.9822 42.5562C43.2386 41.7773 43.3394 40.9316 43.3881 40.1157C43.4444 39.1713 43.4346 38.2178 43.4293 37.2718C43.4263 36.7246 43.4235 36.1774 43.4281 35.6302L43.4329 35.0744H43.4255V32.8301C43.4255 32.4501 43.2735 32.0881 43.0051 31.8197C42.7367 31.5513 42.3747 31.3993 41.9947 31.3993C41.6147 31.3993 41.2526 31.5513 40.9842 31.8196C40.8659 31.9378 40.7691 32.0757 40.6981 32.227C40.6911 32.2427 40.6796 32.256 40.665 32.2652C40.6505 32.2744 40.6336 32.2792 40.6164 32.279H40.4022C40.3783 32.279 40.3553 32.2694 40.3384 32.2525C40.3215 32.2356 40.312 32.2127 40.3119 32.1887V31.4603C40.3118 31.2725 40.2746 31.0866 40.2025 30.9132C40.1303 30.7398 40.0247 30.5824 39.8916 30.4499C39.6232 30.1815 39.2613 30.0295 38.8813 30.0295C38.5012 30.0295 38.1392 30.1814 37.8708 30.4498C37.7525 30.568 37.6557 30.7059 37.5847 30.8572C37.5776 30.8729 37.5661 30.8861 37.5516 30.8954C37.5371 30.9046 37.5202 30.9094 37.503 30.9092H37.2887C37.2648 30.9091 37.2418 30.8996 37.2249 30.8827C37.208 30.8658 37.1985 30.8428 37.1985 30.8189V30.0906C37.1983 29.9028 37.1611 29.7169 37.089 29.5435C37.0169 29.3701 36.9112 29.2127 36.7782 29.0802C36.5098 28.8117 36.1477 28.6599 35.7677 28.6599C35.3876 28.6599 35.0256 28.8117 34.7572 29.0802C34.639 29.1983 34.5422 29.3362 34.4711 29.4875C34.464 29.5032 34.4525 29.5164 34.438 29.5256C34.4235 29.5349 34.4066 29.5396 34.3894 29.5394H34.1751C34.1512 29.5394 34.1283 29.5299 34.1114 29.513C34.0944 29.496 34.0849 29.4731 34.0849 29.4492V23.0924C34.0847 22.9047 34.0475 22.7187 33.9754 22.5454C33.9032 22.372 33.7976 22.2145 33.6645 22.082C33.532 21.949 33.3746 21.8434 33.2012 21.7713C33.0278 21.6991 32.8419 21.6619 32.6541 21.6618C32.4663 21.6618 32.2803 21.699 32.1069 21.7711C31.9334 21.8432 31.7759 21.9488 31.6434 22.082ZM20.2884 19.9487C20.1747 19.8135 20.1186 19.6391 20.1321 19.4629C20.1455 19.2867 20.2276 19.1228 20.3605 19.0065C20.4935 18.8901 20.6668 18.8306 20.8432 18.8406C21.0196 18.8506 21.1851 18.9294 21.304 19.0601L22.3344 20.2369C22.3523 20.2573 22.3757 20.2678 22.4028 20.2677C22.4157 20.2679 22.4286 20.2651 22.4403 20.2597C22.4521 20.2542 22.4625 20.2462 22.4708 20.2363L24.9132 17.3867C24.9709 17.3193 25.0413 17.2639 25.1203 17.2237C25.1994 17.1835 25.2856 17.1593 25.374 17.1524C25.4625 17.1456 25.5514 17.1562 25.6357 17.1836C25.72 17.2111 25.7981 17.255 25.8655 17.3126C25.9329 17.3703 25.9883 17.4407 26.0285 17.5197C26.0687 17.5988 26.0929 17.685 26.0998 17.7734C26.1066 17.8618 26.096 17.9508 26.0686 18.0351C26.0411 18.1194 25.9972 18.1975 25.9396 18.2649L22.9219 21.7854L22.9215 21.7851C22.8586 21.8587 22.7806 21.9178 22.6927 21.9585C22.6049 21.9993 22.5093 22.0206 22.4125 22.0212C22.3157 22.0217 22.2199 22.0014 22.1317 21.9617C22.0434 21.9219 21.9647 21.8636 21.901 21.7908L20.2884 19.9487ZM23.2158 13.7966C26.2401 13.7966 28.6917 16.2482 28.6917 19.2725C28.6917 22.2968 26.2401 24.7484 23.2158 24.7484C20.1915 24.7484 17.7398 22.2968 17.7398 19.2725C17.7398 16.2482 20.1914 13.7966 23.2158 13.7966ZM29.8925 27.968L29.8668 27.9936L27.762 26.9212C27.7486 26.9141 27.7336 26.9107 27.7185 26.9111C27.7033 26.9115 27.6885 26.9159 27.6756 26.9237C26.9859 27.3268 26.2445 27.6341 25.472 27.8373C25.4572 27.841 25.4437 27.8484 25.4327 27.8588C25.4217 27.8692 25.4135 27.8823 25.4091 27.8968L24.6997 30.08C24.694 30.0982 24.6826 30.1141 24.6671 30.1254C24.6517 30.1366 24.633 30.1426 24.6139 30.1424H21.8176C21.7985 30.1426 21.7799 30.1366 21.7644 30.1254C21.749 30.1141 21.7375 30.0982 21.7318 30.08L21.0225 27.8971C21.018 27.8826 21.0099 27.8695 20.9988 27.8591C20.9878 27.8487 20.9743 27.8413 20.9596 27.8376C20.187 27.6345 19.4456 27.327 18.756 26.9237C18.743 26.9159 18.7282 26.9115 18.7131 26.9111C18.6979 26.9107 18.6829 26.9141 18.6695 26.9212L16.6232 27.9639C16.6062 27.9727 16.5869 27.9759 16.568 27.9729C16.5491 27.9699 16.5317 27.9609 16.5183 27.9473L14.5411 25.97C14.5275 25.9566 14.5185 25.9392 14.5155 25.9203C14.5125 25.9014 14.5157 25.8821 14.5245 25.8651L15.5672 23.8188C15.5742 23.8054 15.5777 23.7904 15.5773 23.7752C15.5769 23.7601 15.5725 23.7453 15.5647 23.7323C15.1616 23.0426 14.8542 22.3013 14.651 21.5287C14.6474 21.514 14.64 21.5005 14.6296 21.4894C14.6192 21.4784 14.6061 21.4703 14.5916 21.4658L12.4085 20.7565C12.3902 20.7508 12.3743 20.7393 12.3631 20.7239C12.3519 20.7084 12.3459 20.6898 12.3461 20.6707V17.8744C12.3461 17.8346 12.3707 17.8008 12.4085 17.7885L14.5916 17.0792C14.6061 17.0747 14.6192 17.0666 14.6296 17.0556C14.64 17.0445 14.6474 17.031 14.651 17.0163C14.8542 16.2437 15.1615 15.5024 15.5647 14.8127C15.5725 14.7998 15.5769 14.785 15.5773 14.7698C15.5777 14.7547 15.5742 14.7396 15.5672 14.7262L14.5245 12.6799C14.5157 12.663 14.5125 12.6436 14.5155 12.6247C14.5185 12.6059 14.5275 12.5885 14.5411 12.5751L16.5183 10.5979C16.5317 10.5842 16.5491 10.5752 16.568 10.5722C16.5869 10.5692 16.6062 10.5724 16.6232 10.5812L18.6693 11.6238C18.6975 11.6382 18.7284 11.6372 18.7558 11.6213C19.4455 11.2181 20.1869 10.9107 20.9596 10.7075C20.9743 10.7039 20.9878 10.6965 20.9988 10.6861C21.0099 10.6756 21.018 10.6626 21.0225 10.6481L21.7318 8.46512C21.7375 8.44689 21.749 8.43098 21.7644 8.41975C21.7799 8.40851 21.7985 8.40254 21.8176 8.40272H24.6139C24.6537 8.40272 24.6875 8.4273 24.6997 8.46512L25.409 10.6481C25.4135 10.6626 25.4216 10.6756 25.4326 10.6861C25.4436 10.6965 25.4572 10.7039 25.4719 10.7075C26.2445 10.9106 26.9859 11.2181 27.6756 11.6214C27.6885 11.6292 27.7033 11.6336 27.7185 11.634C27.7336 11.6344 27.7486 11.631 27.762 11.6239L29.8084 10.5812C29.8253 10.5724 29.8447 10.5692 29.8635 10.5722C29.8824 10.5752 29.8998 10.5842 29.9132 10.5979L31.8905 12.5751C31.9042 12.5885 31.9132 12.6059 31.9161 12.6247C31.9191 12.6436 31.916 12.663 31.9071 12.6799L30.8645 14.7262C30.8574 14.7396 30.8539 14.7547 30.8544 14.7698C30.8548 14.785 30.8591 14.7998 30.867 14.8127C31.2701 15.5024 31.5775 16.2437 31.7806 17.0163C31.7842 17.031 31.7916 17.0446 31.802 17.0556C31.8125 17.0666 31.8255 17.0747 31.84 17.0792L34.0232 17.7885C34.061 17.8008 34.0856 17.8346 34.0856 17.8744V20.3551C34.0856 20.3876 34.0699 20.4154 34.0422 20.4322C34.0144 20.449 33.9826 20.4501 33.9538 20.4352C33.6226 20.2633 33.5814 20.1659 32.4881 20.1392C31.9039 20.125 31.1135 20.2689 30.5566 20.8258C30.152 21.2303 29.9009 21.789 29.9009 22.4039H29.9036L29.8925 27.968ZM8.14723 39.4137C7.96765 39.4137 7.79544 39.3424 7.66846 39.2154C7.54148 39.0884 7.47014 38.9162 7.47014 38.7366C7.47014 38.557 7.54148 38.3848 7.66846 38.2578C7.79544 38.1309 7.96765 38.0595 8.14723 38.0595H13.2358C13.4154 38.0595 13.5876 38.1309 13.7146 38.2578C13.8416 38.3848 13.9129 38.557 13.9129 38.7366C13.9129 38.9162 13.8416 39.0884 13.7146 39.2154C13.5876 39.3424 13.4154 39.4137 13.2358 39.4137H8.14723ZM8.14723 45.7026C7.96765 45.7026 7.79544 45.6312 7.66846 45.5042C7.54148 45.3773 7.47014 45.2051 7.47014 45.0255C7.47014 44.8459 7.54148 44.6737 7.66846 44.5467C7.79544 44.4197 7.96765 44.3484 8.14723 44.3484H16.0085C16.1881 44.3484 16.3603 44.4197 16.4873 44.5467C16.6142 44.6737 16.6856 44.8459 16.6856 45.0255C16.6856 45.2051 16.6142 45.3773 16.4873 45.5042C16.3603 45.6312 16.1881 45.7026 16.0085 45.7026H8.14723ZM19.153 45.7026C18.9734 45.7026 18.8012 45.6312 18.6742 45.5042C18.5472 45.3773 18.4759 45.2051 18.4759 45.0255C18.4759 44.8459 18.5472 44.6737 18.6742 44.5467C18.8012 44.4197 18.9734 44.3484 19.153 44.3484H20.7252C20.9048 44.3484 21.077 44.4197 21.204 44.5467C21.331 44.6737 21.4023 44.8459 21.4023 45.0255C21.4023 45.2051 21.331 45.3773 21.204 45.5042C21.077 45.6312 20.9048 45.7026 20.7252 45.7026H19.153ZM8.14723 42.5581C7.96765 42.5581 7.79544 42.4867 7.66846 42.3598C7.54148 42.2328 7.47014 42.0606 7.47014 41.881C7.47014 41.7014 7.54148 41.5292 7.66846 41.4022C7.79544 41.2752 7.96765 41.2039 8.14723 41.2039H20.7252C20.9048 41.2039 21.077 41.2752 21.204 41.4022C21.331 41.5292 21.4023 41.7014 21.4023 41.881C21.4023 42.0606 21.331 42.2328 21.204 42.3598C21.077 42.4867 20.9048 42.5581 20.7252 42.5581H8.14723ZM16.3803 39.4137C16.2007 39.4137 16.0285 39.3424 15.9015 39.2154C15.7745 39.0884 15.7032 38.9162 15.7032 38.7366C15.7032 38.557 15.7745 38.3848 15.9015 38.2578C16.0285 38.1309 16.2007 38.0595 16.3803 38.0595H20.7252C20.9048 38.0595 21.077 38.1309 21.204 38.2578C21.331 38.3848 21.4023 38.557 21.4023 38.7366C21.4023 38.9162 21.331 39.0884 21.204 39.2154C21.077 39.3424 20.9048 39.4137 20.7252 39.4137H16.3803ZM9.80333 10.9796C11.2221 8.69084 13.2006 6.80141 15.5523 5.4896C17.8182 4.22672 20.4313 3.5071 23.2158 3.5071C26.0003 3.5071 28.6134 4.22672 30.8793 5.4896C32.6646 6.48549 34.2403 7.81743 35.5195 9.41197C35.5439 9.4423 35.5464 9.48272 35.5259 9.51584C35.5055 9.54896 35.4684 9.5649 35.4303 9.55674L33.4116 9.12675C33.237 9.09155 33.0555 9.12668 32.9067 9.2245C32.7579 9.32231 32.6537 9.47492 32.6167 9.64914C32.5798 9.82336 32.6131 10.0051 32.7094 10.1549C32.8057 10.3047 32.9573 10.4105 33.1311 10.4492L37.0447 11.2827L37.0466 11.2832C37.1496 11.3075 37.2568 11.3074 37.3597 11.2827C37.4626 11.258 37.5582 11.2095 37.639 11.1412C37.7197 11.0728 37.7833 10.9864 37.8245 10.889C37.8658 10.7915 37.8836 10.6858 37.8765 10.5802L37.6048 6.57037C37.5989 6.4818 37.5756 6.39526 37.5363 6.31569C37.4969 6.23612 37.4423 6.16509 37.3755 6.10663C37.3087 6.04818 37.231 6.00346 37.1469 5.97502C37.0628 5.94659 36.974 5.93499 36.8854 5.9409C36.7968 5.9468 36.7103 5.9701 36.6307 6.00945C36.5512 6.0488 36.4801 6.10344 36.4217 6.17024C36.3632 6.23705 36.3185 6.31471 36.2901 6.3988C36.2616 6.48288 36.25 6.57175 36.2559 6.66032L36.3498 8.04522C36.3525 8.08467 36.3306 8.11981 36.2941 8.13478C36.2575 8.14976 36.2171 8.14016 36.1914 8.11021C34.8745 6.57989 33.2984 5.29348 31.5352 4.30995C29.0698 2.9359 26.2327 2.15283 23.2158 2.15283C20.1989 2.15283 17.3618 2.93581 14.8963 4.30995C12.3432 5.73286 10.1917 7.79101 8.65545 10.2707C8.60891 10.3461 8.57767 10.4299 8.56351 10.5173C8.54936 10.6047 8.55257 10.6941 8.57295 10.7803C8.59334 10.8665 8.63051 10.9479 8.68234 11.0197C8.73416 11.0915 8.79963 11.1525 8.87501 11.199C8.95037 11.2456 9.03416 11.2768 9.1216 11.291C9.20904 11.3052 9.29842 11.302 9.38463 11.2816C9.47083 11.2612 9.55218 11.224 9.62402 11.1722C9.69586 11.1204 9.75679 11.0549 9.80333 10.9796ZM10.1755 31.8847L10.0817 30.4996C10.0802 30.4807 10.0849 30.4618 10.0949 30.4456C10.1049 30.4295 10.1199 30.417 10.1375 30.41C10.155 30.4026 10.1744 30.401 10.1928 30.4054C10.2113 30.4098 10.2279 30.42 10.2401 30.4345C11.2786 31.6408 12.4794 32.6971 13.8082 33.5734C15.841 34.9137 18.174 35.8324 20.6827 36.2049C20.7706 36.2178 20.8601 36.2132 20.9462 36.1914C21.0324 36.1697 21.1133 36.1312 21.1846 36.0781C21.2558 36.0251 21.3159 35.9585 21.3614 35.8822C21.4069 35.806 21.4369 35.7215 21.4498 35.6336C21.4626 35.5457 21.458 35.4562 21.4363 35.3701C21.4145 35.284 21.376 35.203 21.323 35.1318C21.2699 35.0605 21.2034 35.0005 21.1271 34.955C21.0508 34.9095 20.9663 34.8794 20.8785 34.8666C18.6173 34.5314 16.4568 33.7055 14.5487 32.4467C13.1713 31.5382 11.9443 30.4202 10.9118 29.1331C10.9 29.1186 10.893 29.1008 10.8918 29.0822C10.8907 29.0636 10.8954 29.0451 10.9054 29.0293C10.915 29.0133 10.9294 29.0007 10.9466 28.9933C10.9638 28.986 10.9828 28.9842 11.001 28.9883L13.02 29.4183C13.1946 29.4535 13.376 29.4183 13.5248 29.3205C13.6737 29.2227 13.7779 29.0701 13.8148 28.8959C13.8518 28.7217 13.8185 28.5399 13.7221 28.3901C13.6258 28.2403 13.4743 28.1346 13.3004 28.0959L9.38688 27.2623L9.38496 27.2618C9.28199 27.2375 9.17474 27.2377 9.07185 27.2623C8.96896 27.287 8.8733 27.3355 8.79257 27.4039C8.71183 27.4723 8.64828 27.5586 8.60702 27.6561C8.56577 27.7535 8.54796 27.8593 8.55504 27.9648L8.82672 31.9746C8.84051 32.152 8.92372 32.3168 9.0583 32.4333C9.19288 32.5498 9.36797 32.6085 9.54555 32.5966C9.72314 32.5848 9.88889 32.5034 10.0068 32.3701C10.1248 32.2368 10.1854 32.0624 10.1755 31.8847Z" fill="white"/>
</svg>
