<svg width="48" height="48" viewBox="0 0 48 48" fill="none" xmlns="http://www.w3.org/2000/svg">
<path fill-rule="evenodd" clip-rule="evenodd" d="M31.1784 13.9735L30.4875 19.4231H30.8062C31.1166 19.4231 31.3687 19.6753 31.3687 19.9856V21.3085H31.62C31.9256 20.1272 32.6822 19.2431 33.4781 18.315C34.6594 16.9369 35.88 15.5119 35.8172 12.825V12.8119C35.8172 9.20065 32.8791 6.26252 29.2678 6.26252C25.6566 6.26252 22.7184 9.20065 22.7184 12.8119V12.825C22.6547 15.5119 23.8762 16.9369 25.0575 18.315C25.8534 19.2431 26.61 20.1272 26.9156 21.3085H27.1669V19.9856C27.1669 19.6753 27.4191 19.4231 27.7294 19.4231H28.0453L27.3572 13.9913C27.1622 14.0766 26.9372 14.1253 26.6841 14.1253C25.7869 14.1253 25.0566 13.395 25.0566 12.4978C25.0566 11.5997 25.7869 10.8694 26.6841 10.8694C27.1687 10.8694 27.5991 11.055 27.8953 11.3935C28.1512 11.6841 28.2937 12.0694 28.2975 12.4781C28.3003 12.4913 28.3022 12.5044 28.3041 12.5175L29.1797 19.4231H29.3531L30.2316 12.4997C30.2325 12.4866 30.2353 12.4735 30.2372 12.4603C30.2419 12.0516 30.3844 11.6663 30.6394 11.3756C30.9366 11.0372 31.3659 10.8516 31.8506 10.8516C32.7487 10.8516 33.4791 11.5819 33.4791 12.48C33.4791 13.3772 32.7487 14.1075 31.8506 14.1075C31.5984 14.1075 31.3734 14.0588 31.1784 13.9735ZM29.3466 38.3456C29.3466 39.3291 30.1472 40.1297 31.1306 40.1297H33.4163C33.6666 41.1056 34.5534 41.8285 35.6062 41.8285C36.8531 41.8285 37.8675 40.8141 37.8675 39.5672C37.8675 38.3203 36.8531 37.306 35.6062 37.306C34.5534 37.306 33.6666 38.0297 33.4163 39.0047H31.1306C30.7669 39.0047 30.4716 38.7094 30.4716 38.3456V33.3056H29.3466V38.3456ZM24.1791 39.075C23.2031 39.3253 22.4803 40.2122 22.4803 41.265C22.4803 42.5119 23.4947 43.5263 24.7416 43.5263C25.9884 43.5263 27.0028 42.5119 27.0028 41.265C27.0028 40.2122 26.28 39.3253 25.3041 39.075V33.3047H24.1791V39.075ZM18.9619 33.3056V41.6147C17.9859 41.866 17.2631 42.7528 17.2631 43.8056C17.2631 45.0525 18.2775 46.0669 19.5244 46.0669C20.7713 46.0669 21.7856 45.0525 21.7856 43.8056C21.7856 42.7528 21.0628 41.866 20.0869 41.6147V33.3056H18.9619ZM13.1353 39.0038H10.8497C10.5994 38.0288 9.7125 37.305 8.65969 37.305C7.41281 37.305 6.39844 38.3194 6.39844 39.5663C6.39844 40.8131 7.41281 41.8275 8.65969 41.8275C9.7125 41.8275 10.5994 41.1047 10.8497 40.1288H13.1353C14.1187 40.1288 14.9194 39.3281 14.9194 38.3447V33.3047H13.7944V38.3447C13.7944 38.7094 13.4981 39.0038 13.1353 39.0038ZM41.6109 13.2235H39.4378C39.1275 13.2235 38.8753 13.4747 38.8753 13.786C38.8753 14.0963 39.1275 14.3485 39.4378 14.3485H41.6109C41.9222 14.3485 42.1734 14.0963 42.1734 13.786C42.1734 13.4747 41.9222 13.2235 41.6109 13.2235ZM39.6759 7.12689L37.7944 8.21346C37.5253 8.36908 37.4325 8.71221 37.5881 8.98127C37.6374 9.06703 37.7084 9.13829 37.794 9.18783C37.8796 9.23738 37.9767 9.26346 38.0756 9.26346C38.1712 9.26346 38.2678 9.23908 38.3569 9.18752L40.2384 8.10096C40.5075 7.94533 40.6003 7.60127 40.4447 7.33221C40.4078 7.26816 40.3586 7.21203 40.2999 7.16703C40.2413 7.12204 40.1743 7.08905 40.1029 7.06998C40.0315 7.05091 39.957 7.04612 39.8838 7.05588C39.8105 7.06565 39.7399 7.08978 39.6759 7.12689ZM34.9528 2.81439L33.8653 4.69689C33.7106 4.96596 33.8025 5.31002 34.0716 5.46471C34.1597 5.51627 34.2572 5.54064 34.3519 5.54064C34.5469 5.54064 34.7353 5.43939 34.8403 5.25939L35.9269 3.37689C36.0816 3.10783 35.9897 2.76377 35.7206 2.60814C35.4516 2.45346 35.1075 2.54439 34.9528 2.81439ZM28.7053 1.44189V3.61502C28.7053 3.92627 28.9575 4.17752 29.2678 4.17752C29.5781 4.17752 29.8303 3.92627 29.8303 3.61502V1.44189C29.8303 1.13158 29.5781 0.879395 29.2678 0.879395C28.9575 0.879395 28.7053 1.13064 28.7053 1.44189ZM22.6087 3.37689L23.6953 5.25939C23.7994 5.43939 23.9887 5.54064 24.1828 5.54064C24.2784 5.54064 24.375 5.51627 24.4641 5.46471C24.7331 5.31002 24.825 4.96596 24.6694 4.69689L23.5828 2.81439C23.4281 2.54533 23.0841 2.45346 22.815 2.60814C22.5459 2.76283 22.4531 3.10783 22.6087 3.37689ZM18.2962 8.10096L20.1787 9.18752C20.2678 9.23908 20.3644 9.26346 20.46 9.26346C20.6541 9.26346 20.8434 9.16221 20.9475 8.98127C21.0219 8.85208 21.0419 8.69865 21.0033 8.55468C20.9646 8.41072 20.8704 8.28799 20.7412 8.21346L18.8588 7.12689C18.5897 6.97127 18.2456 7.06314 18.0909 7.33221C17.9353 7.60033 18.0272 7.94533 18.2962 8.10096ZM16.9237 14.3485H19.0978C19.4081 14.3485 19.6603 14.0963 19.6603 13.786C19.6603 13.4747 19.4081 13.2235 19.0978 13.2235H16.9237C16.6134 13.2235 16.3612 13.4747 16.3612 13.786C16.3612 14.0963 16.6134 14.3485 16.9237 14.3485ZM25.8928 25.3772C25.8928 25.5272 25.9528 25.6697 26.0588 25.7756L27.2297 26.9428C27.6225 27.3338 28.0922 27.5325 28.6256 27.5325H29.91C30.4434 27.5325 30.9131 27.3338 31.305 26.9428L32.4769 25.7756C32.5294 25.7234 32.5711 25.6613 32.5996 25.593C32.628 25.5246 32.6427 25.4513 32.6428 25.3772V22.996C34.41 23.7263 35.5922 25.4494 35.5922 27.406C35.5922 30.0394 33.45 32.1806 30.8175 32.1806H13.4484C10.815 32.1806 8.67375 30.0394 8.67375 27.406C8.67375 24.8944 10.6369 22.8019 13.1428 22.6416C13.228 22.6359 13.3108 22.611 13.385 22.5688C13.4592 22.5266 13.5229 22.4682 13.5712 22.3978C13.6193 22.3273 13.6508 22.2468 13.6633 22.1624C13.6758 22.0779 13.669 21.9918 13.6434 21.9103C13.5122 21.4978 13.4466 21.0666 13.4466 20.6297C13.4466 18.286 15.3525 16.38 17.6953 16.38C18.4614 16.3798 19.2133 16.5867 19.8715 16.9789C20.5296 17.371 21.0695 17.9337 21.4341 18.6075C21.5184 18.7641 21.6713 18.871 21.8475 18.8963C22.0228 18.9225 22.2 18.8635 22.3256 18.7378C22.6247 18.4397 22.9575 18.1847 23.3194 17.9747C23.6091 18.3525 23.9109 18.705 24.2034 19.0472C25.0209 20.0006 25.7269 20.8266 25.8928 21.9178V25.3772ZM31.5178 24.7003H27.0178V25.1438L28.0237 26.146C28.2028 26.3241 28.3941 26.4075 28.6256 26.4075H29.91C30.1416 26.4075 30.3328 26.3241 30.5109 26.146L31.5178 25.1438V24.7003ZM31.5178 22.4335H27.0178V23.5753H31.5178V22.4335ZM30.2437 20.5481V21.3085H28.2919V20.5481H30.2437ZM26.6841 12.9994C26.4075 12.9994 26.1816 12.7744 26.1816 12.4969C26.1816 12.2194 26.4075 11.9935 26.6841 11.9935C26.8472 11.9935 26.9672 12.0394 27.0506 12.1341C27.1284 12.2231 27.1734 12.3544 27.1734 12.495C27.1734 12.6141 27.1378 12.9994 26.6841 12.9994ZM31.3622 12.4781C31.3622 12.3375 31.4072 12.2063 31.485 12.1172C31.5684 12.0225 31.6884 11.9766 31.8506 11.9766C32.1281 11.9766 32.3541 12.2025 32.3541 12.48C32.3541 12.7575 32.1281 12.9825 31.8506 12.9825C31.3978 12.9825 31.3622 12.5963 31.3622 12.4781Z" fill="white"/>
</svg>
