<svg width="48" height="60" viewBox="0 0 48 60" fill="none" xmlns="http://www.w3.org/2000/svg">
<g clip-path="url(#clip0_16456_393)">
<path d="M43.1137 48.1029L31.9996 41.4302V40.2584C32.0108 39.5468 32.1844 38.8472 32.5071 38.213C32.8298 37.5787 33.2931 37.0265 33.8617 36.5986C36.4802 34.5486 38.3948 31.7337 39.3394 28.5453C40.284 25.3568 40.2116 21.9532 39.1323 18.8078C38.053 15.6624 36.0204 12.9314 33.3172 10.9946C30.6139 9.05783 27.3744 8.01148 24.049 8.00106C20.7235 7.99063 17.4775 9.01664 14.7622 10.9364C12.0468 12.8562 9.99717 15.5744 8.89817 18.713C7.79916 21.8516 7.70543 25.2546 8.63 28.4489C9.55457 31.6433 11.4515 34.4701 14.057 36.5365C14.6498 36.9885 15.1325 37.569 15.4688 38.2343C15.8051 38.8996 15.9863 39.6325 15.9988 40.3779L15.993 41.4326L4.88359 48.1029C3.70258 48.8171 2.72508 49.823 2.04497 51.0239C1.36487 52.2249 1.00502 53.5806 1 54.9607V59.0013C1.00031 59.2663 1.10576 59.5202 1.29319 59.7074C1.48062 59.8946 1.7347 59.9998 1.99961 59.9998H46C46.2651 59.9998 46.5194 59.8945 46.7068 59.707C46.8943 59.5195 46.9996 59.2653 46.9996 59.0002V54.9607C46.9941 53.5804 46.6338 52.2246 45.9533 51.0237C45.2728 49.8228 44.295 48.817 43.1137 48.1029ZM33.6719 44.7654L28.1781 47.7619L25.757 45.3373L30.9402 43.1107C30.9543 43.1201 30.966 43.1342 30.9812 43.1424L33.6719 44.7654ZM25.8203 48.233L24.4984 49.999H23.5L22.1793 48.2341L23.9992 46.4142L25.8203 48.233ZM15.3016 34.9697C13.5647 33.6035 12.1787 31.8428 11.2587 29.8336C10.3387 27.8245 9.91122 25.6249 10.0117 23.4174C10.1084 21.0695 10.7946 18.7837 12.0069 16.7707C13.2192 14.7577 14.9187 13.0822 16.9488 11.8987C18.9788 10.7151 21.2741 10.0616 23.6231 9.99831C25.9722 9.93502 28.2993 10.464 30.3902 11.5365C32.481 12.609 34.2683 14.1905 35.5872 16.1353C36.9062 18.0801 37.7144 20.3256 37.9374 22.6649C38.1605 25.0042 37.7911 27.3619 36.8634 29.5209C35.9356 31.6799 34.4794 33.5707 32.6289 35.0189C31.8207 35.6328 31.1636 36.4235 30.708 37.3304C30.2524 38.2373 30.0104 39.2365 30.0004 40.2513V41.3342L24.0004 43.9123L18.0004 41.3342V40.3709C17.9883 39.3251 17.7392 38.2957 17.2717 37.3601C16.8042 36.4246 16.1306 35.6072 15.3016 34.9697ZM17.0113 43.1541C17.0312 43.1435 17.0441 43.1259 17.0629 43.1154L22.2484 45.342L19.8215 47.7677L14.3277 44.7654L17.0113 43.1541ZM2.99922 57.9994V54.9607C2.99569 53.9241 3.26267 52.9045 3.7738 52.0027C4.28493 51.1009 5.02251 50.348 5.91367 49.8185L11.6371 46.3826L18.277 58.0006L2.99922 57.9994ZM19.8109 56.6541L14.316 47.0388L19.5203 49.8783C19.71 49.9815 19.928 50.0207 20.1417 49.9898C20.3555 49.959 20.5535 49.8599 20.7062 49.7072L20.7496 49.6627L21.8711 51.1603L19.8109 56.6541ZM21.4422 57.9994L23.6922 51.9994H24.3062L26.5562 57.9994H21.4422ZM26.1297 51.1615L27.25 49.6638L27.2934 49.7072C27.4462 49.8597 27.6442 49.9587 27.8579 49.9896C28.0716 50.0204 28.2896 49.9814 28.4793 49.8783L33.6836 47.0388L28.1887 56.6541L26.1297 51.1615ZM44.9969 57.9994H29.7227L36.3613 46.3814L42.0836 49.8162C42.9752 50.3459 43.7131 51.0991 44.2244 52.0014C44.7357 52.9036 45.0028 53.9237 44.9992 54.9607L44.9969 57.9994Z" fill="#FF4625"/>
<path d="M24.0017 14.0004C26.653 14.0032 29.1949 15.0576 31.0698 16.9322C32.9447 18.8069 33.9994 21.3487 34.0025 24C34.0025 24.2651 34.1078 24.5194 34.2953 24.7068C34.4827 24.8943 34.737 24.9996 35.0021 24.9996C35.2672 24.9996 35.5215 24.8943 35.7089 24.7068C35.8964 24.5194 36.0017 24.2651 36.0017 24C35.9983 20.8184 34.7329 17.7682 32.4832 15.5185C30.2335 13.2688 27.1832 12.0034 24.0017 12C23.7424 12.0089 23.4966 12.1181 23.3163 12.3047C23.1359 12.4914 23.0352 12.7407 23.0352 13.0002C23.0352 13.2597 23.1359 13.509 23.3163 13.6956C23.4966 13.8822 23.7424 13.9915 24.0017 14.0004Z" fill="#FF4625"/>
<path d="M23.9996 6.00013C24.131 6.00029 24.2611 5.97455 24.3825 5.92438C24.5039 5.87421 24.6143 5.80061 24.7072 5.70777C24.8001 5.61493 24.8739 5.50468 24.9242 5.38333C24.9745 5.26197 25.0004 5.13189 25.0004 5.00052V0.999743C24.9915 0.7404 24.8822 0.494645 24.6956 0.314321C24.509 0.133997 24.2597 0.0332031 24.0002 0.0332031C23.7407 0.0332031 23.4914 0.133997 23.3047 0.314321C23.1181 0.494645 23.0089 0.7404 23 0.999743V5.00052C23 5.26564 23.1053 5.51989 23.2928 5.70736C23.4802 5.89482 23.7345 6.00013 23.9996 6.00013Z" fill="#FF4625"/>
<path d="M13.6334 8.04501C13.697 8.16267 13.7835 8.26638 13.8879 8.35002C13.9923 8.43366 14.1123 8.49554 14.241 8.53199C14.3697 8.56844 14.5044 8.57873 14.6371 8.56224C14.7698 8.54576 14.8979 8.50284 15.0138 8.43602C15.1296 8.3692 15.2309 8.27984 15.3116 8.17321C15.3924 8.06658 15.4509 7.94485 15.4838 7.81522C15.5167 7.68558 15.5233 7.55066 15.5031 7.41844C15.483 7.28622 15.4366 7.15938 15.3666 7.0454L13.3662 3.58134C13.2335 3.35166 13.015 3.18411 12.7587 3.11554C12.5025 3.04697 12.2295 3.08301 11.9998 3.21572C11.7701 3.34843 11.6026 3.56695 11.534 3.8232C11.4654 4.07945 11.5015 4.35244 11.6342 4.58212L13.6334 8.04501Z" fill="#FF4625"/>
<path d="M3.58183 13.3662L7.04589 15.3666C7.27548 15.4952 7.54647 15.5281 7.80019 15.4584C8.05392 15.3886 8.26995 15.2217 8.40153 14.9938C8.53311 14.766 8.56965 14.4954 8.50323 14.2408C8.43682 13.9862 8.27279 13.768 8.04667 13.6334L4.58261 11.6342C4.46888 11.5685 4.34333 11.5258 4.21311 11.5086C4.08289 11.4914 3.95056 11.5 3.82368 11.534C3.6968 11.5679 3.57785 11.6266 3.47361 11.7065C3.36938 11.7864 3.28191 11.8861 3.2162 11.9998C3.15049 12.1135 3.10782 12.2391 3.09063 12.3693C3.07344 12.4995 3.08207 12.6318 3.11602 12.7587C3.18459 13.015 3.35215 13.2335 3.58183 13.3662Z" fill="#FF4625"/>
<path d="M4.99922 24.9997C5.26433 24.9997 5.51859 24.8944 5.70605 24.7069C5.89351 24.5195 5.99883 24.2652 5.99883 24.0001C5.99883 23.735 5.89351 23.4807 5.70605 23.2933C5.51859 23.1058 5.26433 23.0005 4.99922 23.0005H0.99961C0.734497 23.0005 0.480242 23.1058 0.292779 23.2933C0.105316 23.4807 0 23.735 0 24.0001C0 24.2652 0.105316 24.5195 0.292779 24.7069C0.480242 24.8944 0.734497 24.9997 0.99961 24.9997H4.99922Z" fill="#FF4625"/>
<path d="M3.58125 34.6334C3.39106 34.7435 3.24241 34.9132 3.15827 35.1163C3.07413 35.3193 3.05917 35.5444 3.1157 35.7568C3.17223 35.9692 3.29711 36.1571 3.47106 36.2915C3.645 36.4258 3.85834 36.4992 4.07813 36.5002C4.2533 36.4996 4.42532 36.4536 4.57735 36.3666L8.04141 34.3662C8.15514 34.3005 8.25481 34.213 8.33473 34.1088C8.41465 34.0046 8.47326 33.8856 8.50722 33.7587C8.54117 33.6318 8.54979 33.4995 8.53261 33.3693C8.51542 33.2391 8.47275 33.1135 8.40704 32.9998C8.34132 32.8861 8.25385 32.7864 8.14962 32.7065C8.04539 32.6266 7.92644 32.5679 7.79956 32.534C7.67267 32.5 7.54035 32.4914 7.41013 32.5086C7.27991 32.5258 7.15436 32.5685 7.04063 32.6342L3.58125 34.6334Z" fill="#FF4625"/>
<path d="M40.1934 32.5338C40.0025 32.5853 39.831 32.6922 39.7008 32.841C39.5705 32.9898 39.4873 33.1739 39.4616 33.37C39.4359 33.5661 39.4689 33.7655 39.5564 33.9428C39.6439 34.1202 39.782 34.2677 39.9532 34.3666L43.4173 36.3658C43.531 36.4315 43.6565 36.4741 43.7867 36.4912C43.9169 36.5083 44.0492 36.4996 44.176 36.4656C44.3028 36.4316 44.4217 36.3729 44.5259 36.293C44.6301 36.213 44.7174 36.1134 44.7831 35.9996C44.8487 35.8859 44.8913 35.7604 44.9084 35.6302C44.9255 35.5 44.9169 35.3677 44.8829 35.2409C44.8488 35.114 44.7902 34.9952 44.7102 34.891C44.6303 34.7868 44.5306 34.6994 44.4169 34.6338L40.9528 32.6334C40.839 32.5677 40.7133 32.5251 40.583 32.508C40.4527 32.4909 40.3203 32.4997 40.1934 32.5338Z" fill="#FF4625"/>
<path d="M46.9992 23.0005H42.9996C42.7345 23.0005 42.4802 23.1058 42.2928 23.2933C42.1053 23.4807 42 23.735 42 24.0001C42 24.2652 42.1053 24.5195 42.2928 24.7069C42.4802 24.8944 42.7345 24.9997 42.9996 24.9997H46.9992C47.2643 24.9997 47.5186 24.8944 47.7061 24.7069C47.8935 24.5195 47.9988 24.2652 47.9988 24.0001C47.9988 23.735 47.8935 23.4807 47.7061 23.2933C47.5186 23.1058 47.2643 23.0005 46.9992 23.0005Z" fill="#FF4625"/>
<path d="M40.9533 15.3668L44.4173 13.3664C44.647 13.2338 44.8146 13.0155 44.8833 12.7593C44.952 12.5032 44.9161 12.2303 44.7835 12.0006C44.651 11.7709 44.4326 11.6033 44.1765 11.5346C43.9203 11.4659 43.6474 11.5018 43.4177 11.6344L39.9537 13.6336C39.7315 13.77 39.5714 13.9876 39.5073 14.2403C39.4432 14.4929 39.4802 14.7606 39.6104 14.9864C39.7406 15.2122 39.9538 15.3783 40.2046 15.4493C40.4554 15.5203 40.724 15.4907 40.9533 15.3668Z" fill="#FF4625"/>
<path d="M33.4991 8.54521C33.6749 8.5453 33.8475 8.4991 33.9998 8.41126C34.152 8.32342 34.2784 8.19703 34.3663 8.04482L36.3667 4.58193C36.4345 4.46804 36.4789 4.34182 36.4975 4.2106C36.5162 4.07938 36.5085 3.94577 36.4751 3.81752C36.4416 3.68928 36.383 3.56896 36.3027 3.46354C36.2224 3.35812 36.1219 3.26971 36.0071 3.20344C35.8923 3.13717 35.7655 3.09435 35.6341 3.07748C35.5026 3.06061 35.3691 3.07001 35.2413 3.10515C35.1135 3.14029 34.994 3.20046 34.8897 3.28218C34.7853 3.36389 34.6982 3.46551 34.6335 3.58115L32.6343 7.04521C32.5464 7.19713 32.5001 7.36949 32.5 7.54497C32.4999 7.72045 32.546 7.89287 32.6336 8.0449C32.7213 8.19692 32.8474 8.32319 32.9993 8.41102C33.1513 8.49884 33.3236 8.54513 33.4991 8.54521Z" fill="#FF4625"/>
</g>
<defs>
<clipPath id="clip0_16456_393">
<rect width="48" height="60" fill="white"/>
</clipPath>
</defs>
</svg>
