<svg width="60" height="60" viewBox="0 0 60 60" fill="none" xmlns="http://www.w3.org/2000/svg">
<g clip-path="url(#clip0_16512_300)">
<path d="M58.5364 51.4573L44.1235 37.0393C47.3572 32.0561 48.6321 26.0517 47.7022 20.1838C46.7723 14.316 43.7036 9.00041 39.0878 5.26199C34.472 1.52357 28.636 -0.372896 22.7052 -0.0616965C16.7744 0.249503 11.1687 2.74632 6.96924 6.9473C2.76974 11.1483 0.273796 16.7559 -0.0372941 22.6888C-0.348384 28.6217 1.54741 34.4598 5.28452 39.0772C9.02163 43.6946 14.3354 46.7644 20.2011 47.6946C26.0669 48.6248 32.0692 47.3495 37.0506 44.1146L51.4636 58.5326C52.4018 59.471 53.6743 59.9982 55.001 59.9981C56.3278 59.998 57.6001 59.4706 58.5382 58.5321C59.4763 57.5935 60.0032 56.3206 60.0031 54.9934C60.003 53.6661 59.4759 52.3933 58.5376 51.4549L58.5364 51.4573ZM24.0016 45.9937C11.8526 45.9937 2.00375 36.1472 2.00375 23.988C2.00375 11.8289 11.8585 1.99531 24.0016 1.98241C36.1448 1.96952 45.9995 11.8289 45.9995 23.988C45.9995 36.1472 36.1507 45.9937 24.0016 45.9937ZM57.1221 57.119C56.5496 57.6639 55.7896 57.9678 54.9994 57.9678C54.2092 57.9678 53.4492 57.6639 52.8767 57.119L38.6982 42.9354C40.2841 41.7017 41.7103 40.2751 42.9435 38.6885L57.1221 52.8721C57.6839 53.4359 57.9993 54.1995 57.9993 54.9955C57.9993 55.7916 57.6839 56.5552 57.1221 57.119Z" fill="#FF4625"/>
<path d="M23.9988 3.98193C20.0434 3.98193 16.1769 5.15526 12.8881 7.35353C9.59929 9.5518 7.03599 12.6763 5.52233 16.3319C4.00867 19.9875 3.61262 24.01 4.38428 27.8907C5.15594 31.7715 7.06064 35.3362 9.85753 38.1341C12.6544 40.9319 16.2179 42.8373 20.0973 43.6093C23.9767 44.3812 27.9977 43.985 31.6521 42.4708C35.3064 40.9566 38.4298 38.3924 40.6273 35.1025C42.8248 31.8125 43.9977 27.9446 43.9977 23.9878C43.9977 21.3606 43.4804 18.7591 42.4753 16.3319C41.4703 13.9047 39.9972 11.6992 38.1401 9.84152C36.2831 7.9838 34.0784 6.51018 31.6521 5.50479C29.2257 4.4994 26.6251 3.98193 23.9988 3.98193ZM23.9988 41.9916C20.4391 41.9916 16.9592 40.9356 13.9994 38.9572C11.0395 36.9788 8.73258 34.1668 7.37031 30.8768C6.00803 27.5868 5.6516 23.9667 6.34608 20.474C7.04056 16.9814 8.75476 13.7733 11.2719 11.2552C13.7891 8.73719 16.9961 7.02238 20.4875 6.32766C23.9789 5.63293 27.5978 5.98949 30.8866 7.35224C34.1754 8.71499 36.9864 11.0227 38.9641 13.9836C40.9418 16.9445 41.9974 20.4256 41.9974 23.9866C41.9974 26.3511 41.5319 28.6924 40.6274 30.8768C39.7229 33.0613 38.3971 35.0461 36.7258 36.718C35.0544 38.3899 33.0703 39.7162 30.8866 40.621C28.7029 41.5258 26.3624 41.9916 23.9988 41.9916Z" fill="#FF4625"/>
<path d="M55.3631 54.0887C55.1513 54.0015 54.9158 53.9905 54.6968 54.0574C54.4777 54.1244 54.2887 54.2653 54.1618 54.4561C54.035 54.6468 53.9782 54.8757 54.0011 55.1037C54.0239 55.3316 54.1251 55.5446 54.2874 55.7063C54.4794 55.8885 54.7328 55.9919 54.9975 55.9959C55.2261 55.9937 55.4469 55.9124 55.6224 55.7659C55.798 55.6193 55.9174 55.4166 55.9605 55.1919C56.0035 54.9673 55.9675 54.7347 55.8587 54.5336C55.7498 54.3325 55.5747 54.1753 55.3631 54.0887Z" fill="#FF4625"/>
<path d="M35.0001 15.9853H30.9996V13.9843C30.9993 13.454 30.7886 12.9454 30.4138 12.5702C30.039 12.1951 29.5307 11.984 29.0005 11.9834H19.0005C18.4704 11.984 17.9621 12.1951 17.5873 12.5702C17.2125 12.9454 17.0018 13.454 17.0015 13.9843V15.9853H13.0069C12.4769 15.9859 11.9688 16.1968 11.594 16.5717C11.2192 16.9466 11.0084 17.4549 11.0078 17.985V22.8661C11.0083 23.294 11.0974 23.7171 11.2694 24.1089C11.4414 24.5007 11.6927 24.8526 12.0073 25.1425V31.9904C12.008 32.5209 12.2189 33.0295 12.5939 33.4046C12.9689 33.7797 13.4773 33.9908 14.0076 33.9914H33.9994C34.5297 33.9908 35.0381 33.7797 35.4131 33.4046C35.7881 33.0295 35.999 32.5209 35.9996 31.9904V25.1425C36.3143 24.8526 36.5655 24.5007 36.7376 24.1089C36.9096 23.7171 36.9987 23.294 36.9991 22.8661V17.985C36.9985 17.4549 36.7877 16.9466 36.4129 16.5717C36.0382 16.1968 35.5301 15.9859 35.0001 15.9853ZM19.0005 13.9843H29.0005V15.9853H19.0005V13.9843ZM33.9994 31.9893H14.0017V25.9759C14.0427 25.9759 14.0814 25.9876 14.1189 25.9876H22.9975V26.9875C22.9975 27.2527 23.1028 27.507 23.2903 27.6945C23.4777 27.882 23.7319 27.9874 23.997 27.9874C24.2621 27.9874 24.5164 27.882 24.7038 27.6945C24.8913 27.507 24.9966 27.2527 24.9966 26.9875V25.9876H33.8752C33.9162 25.9876 33.9548 25.9771 33.9923 25.9759V31.9904L33.9994 31.9893ZM35.0001 22.8661C34.9995 23.1634 34.8811 23.4484 34.6709 23.6586C34.4608 23.8688 34.1759 23.9872 33.8787 23.9879H14.1224C13.8252 23.9872 13.5403 23.8688 13.3301 23.6586C13.12 23.4484 13.0016 23.1634 13.001 22.8661V17.9862H34.9989V22.8661H35.0001Z" fill="#FF4625"/>
</g>
<defs>
<clipPath id="clip0_16512_300">
<rect width="60" height="60" fill="white"/>
</clipPath>
</defs>
</svg>
