<svg width="66" height="48" viewBox="0 0 66 48" fill="none" xmlns="http://www.w3.org/2000/svg">
<g clip-path="url(#clip0_16512_292)">
<path d="M65.3877 0.113847C65.2032 0.0227575 64.9967 -0.0150991 64.7916 0.00458286C64.5865 0.0242648 64.391 0.100696 64.2275 0.22518L46.3495 13.8002C45.9236 14.1264 45.6327 14.5961 45.5317 15.1207C45.4308 15.6453 45.5268 16.1884 45.8017 16.6475L42.9799 17.4153L38.8614 15.6749C38.7897 15.6445 38.7149 15.6217 38.6384 15.6071C34.6887 14.8585 32.6404 15.5802 31.582 16.3851H20.3401C20.5276 15.9397 20.5614 15.4452 20.4365 14.9786C20.3115 14.512 20.0347 14.0995 19.6492 13.8053L1.76859 0.22518C1.60544 0.10161 1.41074 0.0257732 1.20647 0.00622895C1.0022 -0.0133153 0.796496 0.0242109 0.612571 0.114573C0.428647 0.204935 0.273827 0.344535 0.165586 0.517616C0.0573445 0.690697 -8.52925e-06 0.890368 1.41712e-07 1.09409V27.3022C-9.83469e-05 27.4946 0.0511412 27.6836 0.148505 27.8499C0.245869 28.0162 0.385882 28.154 0.554297 28.2492L7.36312 32.1113C7.69391 32.2994 8.06858 32.3983 8.44981 32.3979C9.00901 32.3974 9.54713 32.186 9.95543 31.8067L11.2316 32.819C10.8659 33.2807 10.6331 33.8323 10.558 34.4149C10.483 34.9976 10.5684 35.5895 10.8053 36.1278C11.0421 36.6661 11.4215 37.1306 11.9031 37.4718C12.3848 37.813 12.9505 38.0183 13.5403 38.0657C13.6344 38.0747 13.7259 38.0772 13.8187 38.0772C13.988 38.0759 14.157 38.0618 14.3241 38.035C14.3938 38.8115 14.7035 39.5476 15.2109 40.1426C15.5367 40.5266 15.9359 40.8427 16.3855 41.0724C16.8352 41.3022 17.3262 41.4411 17.8303 41.4812C17.9399 41.4914 18.0482 41.4953 18.1564 41.4953C18.1732 41.4953 18.1887 41.4953 18.2054 41.4953C18.2361 42.2052 18.5026 42.8851 18.9634 43.4289C19.2731 43.7905 19.6583 44.0808 20.0924 44.2797C20.5265 44.4786 20.999 44.5813 21.4771 44.5806C21.8622 44.5803 22.2441 44.5118 22.605 44.3784C22.7843 45.0141 23.1559 45.5798 23.6695 45.9991C24.1832 46.4184 24.8141 46.671 25.477 46.7228C25.5698 46.7318 25.6627 46.7356 25.7555 46.7356C26.5121 46.7395 27.2456 46.477 27.8257 45.9947L29.5518 44.6715L33.6136 47.3665C34.2415 47.7826 34.9792 48.0052 35.7341 48.0064C35.9939 48.0065 36.253 47.9808 36.5075 47.9296C37.3146 47.7704 38.0486 47.3576 38.6009 46.7521C39.1532 46.1467 39.4945 45.3808 39.5742 44.5678C40.1178 44.7324 40.6916 44.7737 41.2534 44.6886C41.8152 44.6035 42.3505 44.3942 42.8199 44.0761C43.2892 43.7581 43.6806 43.3394 43.9651 42.8511C44.2496 42.3627 44.42 41.8172 44.4636 41.2547C45.09 41.4602 45.7593 41.5016 46.4065 41.3747C47.0538 41.2479 47.657 40.9572 48.1578 40.5308C48.6585 40.1043 49.0398 39.5567 49.2645 38.9409C49.4893 38.3252 49.55 37.6622 49.4407 37.0163C49.9854 36.9542 50.51 36.7756 50.9784 36.4928C51.4468 36.21 51.848 35.8298 52.1542 35.3783C52.4576 34.9242 52.6599 34.4109 52.7475 33.8728C52.8351 33.3348 52.806 32.7844 52.6621 32.2584L54.8316 30.106L55.7172 31.4241C56.0266 31.8841 56.5001 32.2106 57.0423 32.3379C57.5846 32.4652 58.1553 32.3837 58.6395 32.11L65.4457 28.2492C65.614 28.1536 65.754 28.0156 65.8513 27.849C65.9486 27.6825 65.9999 27.4934 66 27.3009V1.09409C66.0003 0.890241 65.9431 0.690374 65.8349 0.517129C65.7267 0.343883 65.5718 0.204181 65.3877 0.113847ZM2.20043 26.6675V3.30156L14.4813 12.6241L4.4073 27.919L2.20043 26.6675ZM8.45367 30.2135L6.31641 29.0042L16.228 13.955L18.3086 15.5341L8.45367 30.2135ZM14.5123 35.633C14.4064 35.7269 14.2822 35.7981 14.1473 35.8422C14.0124 35.8862 13.8699 35.9021 13.7285 35.8889C13.5205 35.8717 13.3219 35.7948 13.1571 35.6676C12.9922 35.5405 12.8681 35.3685 12.7999 35.1727C12.7316 34.9768 12.7221 34.7655 12.7725 34.5644C12.823 34.3632 12.9312 34.181 13.084 34.0398L15.8348 31.9283C16.0279 31.7637 16.2739 31.673 16.5284 31.6724C16.5593 31.6724 16.5889 31.6724 16.6186 31.6724C16.8266 31.6896 17.0252 31.7665 17.19 31.8937C17.3549 32.0208 17.479 32.1928 17.5473 32.3886C17.6155 32.5845 17.625 32.7958 17.5746 32.9969C17.5241 33.198 17.4159 33.3803 17.2631 33.5215L14.5123 35.633ZM18.0198 39.3057C17.6985 39.2796 17.3919 39.1607 17.1379 38.9635C16.8839 38.7664 16.6937 38.4997 16.5907 38.1964C16.4878 37.8931 16.4765 37.5665 16.5585 37.2569C16.6404 36.9474 16.8119 36.6684 17.0517 36.4546L20.5167 33.7954C20.7658 33.5873 21.0713 33.457 21.3949 33.4209C21.7184 33.3848 22.0454 33.4446 22.3348 33.5926C22.6242 33.7406 22.863 33.9703 23.0212 34.2528C23.1794 34.5352 23.2498 34.8578 23.2238 35.18C23.1927 35.5847 23.0085 35.9628 22.7081 36.2383L21.7658 36.969L19.2173 38.9244C19.0524 39.0645 18.861 39.1704 18.6542 39.2359C18.4474 39.3013 18.2295 39.3251 18.0134 39.3057H18.0198ZM23.6375 40.9988L22.1693 42.1364C22.0612 42.2269 21.9363 42.2954 21.8015 42.338C21.6668 42.3806 21.5249 42.3964 21.384 42.3845C21.2431 42.3726 21.1059 42.3333 20.9803 42.2688C20.8547 42.2042 20.7432 42.1158 20.6521 42.0084C20.5591 41.9023 20.4883 41.7789 20.4441 41.6452C20.3998 41.5116 20.3829 41.3706 20.3943 41.2304C20.4133 40.9619 20.5361 40.711 20.7371 40.5304L23.3088 38.5379L24.0668 37.9569C24.0758 37.9492 24.081 37.9403 24.0887 37.9326L24.8621 37.3312C25.0551 37.1664 25.3011 37.0756 25.5557 37.0752C25.5853 37.0752 25.6162 37.0752 25.6459 37.0752C25.8545 37.0923 26.0535 37.1693 26.2188 37.2968C26.3841 37.4242 26.5085 37.5967 26.5768 37.7931C26.6451 37.9895 26.6544 38.2013 26.6036 38.4029C26.5527 38.6044 26.4439 38.787 26.2904 38.9282L23.7123 40.922L23.6375 40.9988ZM29.2011 42.185L26.4503 44.2965C26.3443 44.39 26.2199 44.4604 26.0849 44.5034C25.95 44.5464 25.8075 44.5609 25.6665 44.5461C25.4588 44.5283 25.2607 44.4511 25.0962 44.3239C24.9317 44.1966 24.8078 44.0248 24.7396 43.8292C24.6715 43.6335 24.6618 43.4225 24.7119 43.2215C24.7621 43.0206 24.8697 42.8384 25.022 42.6969L25.0723 42.6585L27.7793 40.5854C27.993 40.3974 28.2731 40.3013 28.5582 40.3184C28.8432 40.3354 29.1097 40.4641 29.2991 40.6763C29.4885 40.8884 29.5853 41.1665 29.5681 41.4495C29.5509 41.7324 29.4213 41.997 29.2076 42.185H29.2011ZM50.3263 34.169C50.0843 34.5249 49.712 34.773 49.2886 34.8607C48.8652 34.9484 48.424 34.8688 48.0588 34.6387H48.0498L40.8311 29.6812C40.7131 29.5897 40.5775 29.523 40.4327 29.4854C40.2879 29.4477 40.1369 29.4398 39.9889 29.4622C39.8409 29.4845 39.699 29.5366 39.572 29.6153C39.445 29.6939 39.3356 29.7975 39.2503 29.9197C39.165 30.0418 39.1058 30.18 39.0762 30.3257C39.0467 30.4713 39.0473 30.6215 39.0783 30.7669C39.1092 30.9123 39.1697 31.0499 39.2561 31.1713C39.3425 31.2926 39.4529 31.3952 39.5807 31.4727L46.5713 36.2703C46.8427 36.4493 47.0544 36.7045 47.1793 37.0033C47.3043 37.3022 47.3368 37.6312 47.2728 37.9484C47.2088 38.2657 47.0512 38.5568 46.82 38.7849C46.5887 39.0129 46.2944 39.1675 45.9744 39.2289C45.765 39.2724 45.549 39.2743 45.3388 39.2345C45.1286 39.1948 44.9285 39.1141 44.7498 38.9973L37.5207 34.0449C37.2804 33.89 36.9887 33.8342 36.7076 33.8894C36.4264 33.9446 36.1781 34.1065 36.0153 34.3406C35.8525 34.5747 35.788 34.8626 35.8357 35.1431C35.8833 35.4236 36.0392 35.6747 36.2704 35.8429L41.5555 39.4593C41.9221 39.7164 42.1751 40.1035 42.2621 40.5406C42.3492 40.9777 42.2638 41.4312 42.0234 41.8075C41.7854 42.1662 41.4145 42.4171 40.9912 42.506C40.5679 42.5949 40.1264 42.5145 39.7624 42.2823L37.8211 40.9117L35.8359 39.5143C35.5977 39.3542 35.3059 39.293 35.0228 39.3438C34.7397 39.3946 34.4879 39.5535 34.3213 39.7863C34.1547 40.0191 34.0865 40.3074 34.1313 40.5895C34.1761 40.8716 34.3304 41.125 34.5611 41.2956L36.6003 42.7315C36.6988 42.811 36.7922 42.8965 36.8801 42.9874C37.1776 43.2705 37.3579 43.6538 37.3857 44.062C37.4135 44.4703 37.2867 44.8741 37.0302 45.1944C36.7737 45.5147 36.406 45.7283 35.9991 45.7935C35.5922 45.8587 35.1754 45.7707 34.8305 45.5468L31.2082 43.1435C31.5106 42.6798 31.6883 42.1468 31.7244 41.5955C31.7604 41.0442 31.6536 40.4929 31.414 39.9943C31.1745 39.4956 30.8103 39.0662 30.3561 38.7469C29.9019 38.4277 29.3729 38.2293 28.8196 38.1706C28.8319 37.3516 28.5296 36.5586 27.9741 35.9529C27.4186 35.3472 26.6515 34.9743 25.8289 34.91C25.6877 34.901 25.5461 34.901 25.4048 34.91C25.3875 34.2494 25.1966 33.6047 24.8511 33.0399C24.5056 32.475 24.0174 32.0096 23.4349 31.6897C22.8524 31.3698 22.1959 31.2065 21.5303 31.216C20.8647 31.2256 20.2131 31.4076 19.6402 31.744C19.4783 31.2381 19.1939 30.7793 18.8119 30.4079C18.43 30.0364 17.9621 29.7636 17.4493 29.6133C16.9364 29.463 16.3943 29.4398 15.8704 29.5458C15.3464 29.6518 14.8567 29.8837 14.4439 30.2212L12.9409 31.3729L11.229 30.0152L18.9221 18.5606H28.5772C28.1661 18.9179 27.855 19.3747 27.6743 19.8867C27.4936 20.3986 27.4494 20.9482 27.546 21.4822C27.6576 22.126 27.9706 22.7185 28.4405 23.1758C28.9104 23.6332 29.5135 23.932 30.1641 24.03C32.1987 24.3152 34.2731 24.0187 36.144 23.1752L38.949 24.9463C39.0116 24.9822 39.0777 25.0117 39.1462 25.0346L49.87 31.8912C50.0821 32.0349 50.2603 32.2226 50.392 32.4414C50.392 32.4542 50.4036 32.467 50.4101 32.4798C50.5499 32.7433 50.6154 33.0394 50.5995 33.3368C50.5836 33.6342 50.487 33.9217 50.3198 34.169H50.3263ZM51.4516 30.376C51.3346 30.2644 51.2111 30.1597 51.0817 30.0625L40.1968 23.1048C40.1464 23.081 40.0943 23.0609 40.0409 23.0447L36.8053 20.9972C36.636 20.8904 36.4405 20.8315 36.24 20.8267C36.0394 20.822 35.8413 20.8716 35.6671 20.9703C34.0847 21.7839 32.2892 22.0965 30.5224 21.8661C30.3223 21.8424 30.1354 21.7547 29.99 21.6162C29.8446 21.4776 29.7487 21.2958 29.7168 21.0983C29.6771 20.8906 29.7059 20.6759 29.7987 20.4858C29.8916 20.2956 30.0437 20.1402 30.2324 20.0425C31.0559 19.6161 31.8297 19.1011 32.5398 18.5069C32.6161 18.443 32.6788 18.3647 32.7241 18.2765C32.7588 18.2332 32.7976 18.1933 32.8402 18.1575C33.1624 17.8837 34.4914 17.0531 38.1098 17.7173L42.4695 19.5601C42.6964 19.6583 42.9505 19.6755 43.1888 19.6087L47.0766 18.5568L53.5837 28.2441L51.4516 30.376ZM57.5528 30.2135L47.6914 15.5354L49.7733 13.955L59.6836 29.0042L57.5528 30.2135ZM63.806 26.6675L61.5991 27.919L51.5187 12.6254L63.7996 3.30156V26.6675H63.806Z" fill="#FF4625"/>
</g>
<defs>
<clipPath id="clip0_16512_292">
<rect width="66" height="48" fill="white"/>
</clipPath>
</defs>
</svg>
