<svg width="48" height="48" viewBox="0 0 48 48" fill="none" xmlns="http://www.w3.org/2000/svg">
<path d="M46.7118 34.3634L35.9771 23.626C37.9913 19.0532 37.1294 13.5087 33.39 9.76839C28.518 4.89524 20.6318 4.89458 15.7592 9.76839C10.8986 14.6301 10.8986 22.5407 15.7592 27.4024C19.6217 31.2658 25.2822 32.0014 29.8011 29.9123L40.481 40.5948C42.2029 42.317 44.9903 42.3172 46.7122 40.5944C48.4294 38.8765 48.4292 36.0813 46.7118 34.3634ZM17.7482 25.4138C13.9839 21.6486 13.9839 15.5223 17.7482 11.757C21.5209 7.98341 27.6276 7.98275 31.4009 11.757C35.1652 15.5223 35.1652 21.6486 31.4009 25.4138C27.6281 29.1875 21.5215 29.1881 17.7482 25.4138ZM44.7229 38.6061C44.1004 39.2289 43.0927 39.2292 42.47 38.6062L32.2664 28.4001C33.1049 27.7408 33.856 26.9775 34.5016 26.1284L44.7227 36.3519C45.344 36.9734 45.3441 37.9846 44.7229 38.6061ZM1.40631 22.9648H7.40302C8.17968 22.9648 8.80933 22.3351 8.80933 21.5585C8.80933 20.7818 8.17968 20.1521 7.40302 20.1521H1.40631C0.629653 20.1521 0 20.7818 0 21.5585C0 22.3351 0.629653 22.9648 1.40631 22.9648ZM1.40631 28.965H9.65181C10.4285 28.965 11.0581 28.3354 11.0581 27.5587C11.0581 26.7821 10.4285 26.1524 9.65181 26.1524H1.40631C0.629653 26.1524 0 26.7821 0 27.5587C0 28.3354 0.629653 28.965 1.40631 28.965ZM1.40631 34.9653H15.6486C16.4253 34.9653 17.0549 34.3357 17.0549 33.559C17.0549 32.7823 16.4253 32.1527 15.6486 32.1527H1.40631C0.629653 32.1527 0 32.7823 0 33.559C0 34.3357 0.629653 34.9653 1.40631 34.9653ZM32.1398 38.153H1.40631C0.629653 38.153 0 38.7826 0 39.5593C0 40.3359 0.629653 40.9656 1.40631 40.9656H32.1398C32.9164 40.9656 33.5461 40.3359 33.5461 39.5593C33.5461 38.7826 32.9164 38.153 32.1398 38.153Z" fill="white"/>
</svg>
