<svg width="48" height="48" viewBox="0 0 48 48" fill="none" xmlns="http://www.w3.org/2000/svg">
<path d="M46.0199 22.4731C44.8531 21.9531 43.4703 22.1512 42.4929 22.9826L35.5678 28.9383C35.2268 27.2929 33.766 26.0521 32.0207 26.0521H25.4197L24.2346 25.3266C22.2721 24.1257 20.0159 23.4904 17.7152 23.4908C14.5856 23.4908 11.5775 24.814 9.46269 27.1215L6.7113 30.123L6.58351 29.9951C5.71332 29.1254 4.29788 29.1254 3.42853 29.9951L0.652293 32.7712C-0.217431 33.6409 -0.217431 35.0563 0.652293 35.926L10.3145 45.5882C10.7491 46.0228 11.3204 46.2404 11.8918 46.2404C12.4631 46.2404 13.0343 46.0229 13.4694 45.5882L16.2454 42.8118C17.1151 41.9421 17.1151 40.5267 16.2454 39.6569L15.8856 39.2973C16.1144 39.2627 16.3453 39.2449 16.5767 39.2443H19.1842C19.7019 39.2443 20.1217 38.8245 20.1217 38.3071C20.1217 37.7892 19.7019 37.3696 19.1842 37.3696H16.5767C15.8201 37.3696 15.0613 37.504 14.3476 37.7589L8.03815 31.4495L10.8444 28.3878C12.6051 26.4671 15.1097 25.3651 17.7156 25.3651C19.6716 25.3651 21.5875 25.9049 23.256 26.9255L24.6667 27.7887C24.814 27.8788 24.9834 27.9265 25.1561 27.9264H32.0207C32.9845 27.9264 33.7686 28.7108 33.7686 29.6747C33.7686 30.625 33.0058 31.3988 32.0606 31.4205H20.5472C20.0297 31.4205 19.6097 31.8401 19.6097 32.358C19.6097 32.8754 20.0297 33.2951 20.5472 33.2951H31.9807C31.9943 33.2958 32.0071 33.297 32.0207 33.297C32.0694 33.297 32.1173 33.2955 32.1657 33.2932C32.9694 33.2762 33.7422 32.9806 34.352 32.4568L43.7113 24.4071C44.1383 24.0442 44.7447 23.9571 45.2563 24.1852C45.7038 24.3844 46.0114 24.7748 46.1008 25.2564C46.1898 25.7379 46.0427 26.2126 45.6961 26.559L37.5263 34.7332C35.827 36.4331 33.5675 37.3696 31.1641 37.3696H27.6203C27.1024 37.3696 26.6828 37.7892 26.6828 38.3067C26.6828 38.8245 27.1024 39.2443 27.6203 39.2443H31.1641C34.0685 39.2443 36.7987 38.113 38.8524 36.0586L47.0222 27.8843C47.4051 27.5013 47.6891 27.0308 47.8497 26.5135C48.0103 25.9962 48.0426 25.4476 47.9439 24.915C47.8454 24.3825 47.6187 23.8819 47.2835 23.4564C46.9483 23.031 46.5146 22.6935 46.0199 22.4731ZM14.92 41.4862L12.1437 44.2624C12.0768 44.3291 11.9862 44.3665 11.8917 44.3665C11.7973 44.3665 11.7067 44.3291 11.6398 44.2624L1.97802 34.6002C1.91139 34.5334 1.87398 34.4429 1.87398 34.3485C1.87398 34.2541 1.91139 34.1636 1.97802 34.0968L4.75388 31.3208C4.78694 31.2877 4.82622 31.2614 4.86947 31.2435C4.91271 31.2256 4.95907 31.2164 5.00588 31.2165C5.09738 31.2165 5.1886 31.2512 5.25779 31.3208L14.92 40.9827C14.9866 41.0495 15.024 41.14 15.024 41.2344C15.024 41.3288 14.9866 41.4193 14.92 41.4861V41.4862Z" fill="white"/>
<path d="M23.402 37.3787C23.1537 37.3796 22.9157 37.4783 22.7396 37.6534C22.5645 37.8295 22.4658 38.0675 22.4649 38.3159C22.4649 38.5627 22.5652 38.8044 22.7396 38.9787C22.9157 39.1538 23.1537 39.2525 23.402 39.2534C23.6489 39.2534 23.8906 39.1531 24.0649 38.9787C24.2391 38.8043 24.3395 38.5627 24.3395 38.3159C24.3395 38.0694 24.2392 37.8277 24.0649 37.6534C23.8905 37.4791 23.6489 37.3787 23.402 37.3787ZM15.0985 20.3579C16.2829 20.3579 17.3965 19.8965 18.234 19.0589C19.0716 18.2214 19.5331 17.1081 19.5331 15.9235C19.5331 15.0581 19.2855 14.2308 18.8262 13.5211L22.1852 10.1621C22.8949 10.6218 23.7221 10.869 24.5875 10.869C25.4529 10.869 26.2801 10.6218 26.9899 10.1621L30.3488 13.5211C29.8895 14.2308 29.6419 15.058 29.6419 15.9235C29.6419 17.1077 30.1034 18.2214 30.9409 19.0589C31.7785 19.8965 32.8921 20.3579 34.0764 20.3579C35.2611 20.3579 36.3748 19.8965 37.2123 19.0589C38.0498 18.2214 38.5109 17.1077 38.5109 15.9235C38.5109 15.0581 38.2638 14.2308 37.8045 13.5211L41.163 10.1621C41.8727 10.6218 42.7 10.869 43.5653 10.869C44.7501 10.869 45.8637 10.4075 46.7013 9.56998C47.5388 8.73251 47.9998 7.61884 47.9998 6.43449C47.9998 5.24977 47.5388 4.13611 46.7013 3.29854C45.8634 2.46116 44.7501 2 43.5653 2C42.381 2 41.2674 2.46107 40.4299 3.29863C39.5923 4.13611 39.1309 5.24977 39.1309 6.43449C39.1309 7.29981 39.3784 8.12669 39.8377 8.83638L36.4787 12.1957C35.7691 11.7362 34.9418 11.4889 34.0764 11.4889C33.211 11.4889 32.3838 11.7362 31.674 12.1957L28.3151 8.83685C28.7748 8.12716 29.022 7.29981 29.022 6.43449C29.022 5.24977 28.5606 4.13611 27.723 3.29891C26.8854 2.46107 25.7718 2 24.5875 2C23.4028 2 22.2891 2.46144 21.4516 3.29891C20.6141 4.13611 20.153 5.24986 20.153 6.43449C20.153 7.29981 20.4002 8.12707 20.8594 8.83685L17.5005 12.1957C16.7908 11.7365 15.964 11.4889 15.0982 11.4889C13.9138 11.4889 12.8002 11.9504 11.9627 12.7879C11.1251 13.6254 10.6641 14.7391 10.6641 15.9235C10.6641 17.1081 11.1251 18.2218 11.9627 19.0593C12.8002 19.8968 13.9137 20.3579 15.0985 20.3579ZM41.7555 4.62427C42.239 4.14089 42.882 3.87426 43.5658 3.87426C44.2496 3.87426 44.8926 4.14089 45.376 4.62427C45.8593 5.10764 46.1256 5.7504 46.1256 6.43449C46.1256 7.11822 45.8593 7.76088 45.376 8.24426C44.8926 8.72801 44.2494 8.99426 43.5657 8.99426C42.882 8.99426 42.2393 8.72801 41.7556 8.24426C41.2721 7.76088 41.006 7.11822 41.006 6.43449C41.006 5.7504 41.2721 5.10764 41.7555 4.62427ZM35.8867 14.1132C36.3705 14.597 36.6367 15.2397 36.6367 15.9235C36.6367 16.6072 36.3705 17.2498 35.8867 17.7336C35.4032 18.217 34.7605 18.4832 34.0764 18.4832C33.3928 18.4832 32.75 18.217 32.2666 17.7336C31.7829 17.2502 31.5166 16.6072 31.5166 15.9235C31.5166 15.2397 31.7829 14.597 32.2666 14.1132C32.75 13.6298 33.3928 13.3636 34.0764 13.3636C34.7605 13.3636 35.4032 13.6298 35.8867 14.1132ZM22.7772 4.62427C23.2606 4.14089 23.9037 3.87426 24.5874 3.87426C25.2711 3.87426 25.9142 4.14089 26.3976 4.62427C26.8809 5.10764 27.1472 5.7504 27.1472 6.43449C27.1472 7.11822 26.8809 7.76088 26.3976 8.24426C25.9142 8.72801 25.2711 8.99426 24.5874 8.99426C23.9535 8.99426 23.3551 8.76504 22.8859 8.34644C22.8571 8.3066 22.8259 8.26807 22.79 8.23188C22.7543 8.19698 22.716 8.16488 22.6754 8.13588C22.2568 7.66675 22.0276 7.06844 22.0276 6.43449C22.0276 5.7504 22.2938 5.10764 22.7772 4.62427ZM13.2883 14.1132C13.7717 13.6298 14.4148 13.3636 15.0986 13.3636C15.7823 13.3636 16.4249 13.6298 16.9087 14.1132C17.3922 14.597 17.6583 15.2397 17.6583 15.9235C17.6583 16.6072 17.3921 17.2498 16.9087 17.7336C16.4249 18.217 15.7823 18.4832 15.0986 18.4832C14.4148 18.4832 13.7717 18.217 13.2883 17.7336C12.805 17.2502 12.5383 16.6072 12.5383 15.9235C12.5383 15.2397 12.805 14.597 13.2883 14.1132Z" fill="white"/>
</svg>
