<svg width="16" height="16" viewBox="0 0 16 16" fill="none" xmlns="http://www.w3.org/2000/svg">
<path d="M6.73675 16C6.73449 16 6.73188 16 6.72971 16C6.63715 15.9979 6.54979 15.9537 6.48718 15.8779L0.0895627 8.10976C-0.0201374 7.97643 -0.0302105 7.77561 0.0656827 7.62929C0.161576 7.48345 0.336194 7.43351 0.483208 7.51012L6.3386 10.5718C6.38793 10.5976 6.44611 10.585 6.48379 10.5413L15.4156 0.116993C15.5365 -0.0242496 15.7343 -0.0396673 15.8716 0.0819977C16.0089 0.203663 16.0406 0.421995 15.9447 0.585734L7.05986 15.7845C7.04719 15.8066 7.03225 15.8266 7.01584 15.8453L6.97667 15.8892C6.91285 15.96 6.82628 16 6.73675 16Z" fill="white"/>
</svg>
