<svg width="205" height="45" viewBox="0 0 205 45" fill="none" xmlns="http://www.w3.org/2000/svg">
<g clip-path="url(#clip0_16316_785)">
<path d="M27.2729 13.8561C28.1074 13.0227 28.6229 11.8735 28.6229 10.6039C28.6229 8.06085 26.5532 5.99902 24.0005 5.99902C22.3864 5.99902 20.9677 6.82454 20.141 8.07259C19.921 8.29168 1.52181 30.8838 1.35 31.143C0.515453 31.9763 0 33.1256 0 34.3941C0 36.9372 2.06967 38.999 4.62239 38.999C6.23649 38.999 7.65522 38.1735 8.48191 36.9255C8.70183 36.7064 27.1011 14.1143 27.2729 13.8551V13.8561Z" fill="#FF4625"/>
<path d="M37.9166 24.5758C38.7531 23.7425 39.2695 22.5912 39.2695 21.3207C39.2695 18.7776 37.1999 16.7158 34.6471 16.7158C33.033 16.7158 31.6133 17.5413 30.7866 18.7913C30.5648 19.0124 20.9017 30.8787 20.7279 31.1408C19.8914 31.9741 19.375 33.1253 19.375 34.3959C19.375 36.9389 21.4447 39.0008 23.9974 39.0008C25.6115 39.0008 27.0312 38.1753 27.8579 36.9252C28.0798 36.7042 37.7428 24.8379 37.9166 24.5758Z" fill="#C4F000"/>
<path d="M47.8759 11.6542C48.4585 9.17812 46.9158 6.7004 44.4302 6.12009C41.9447 5.53978 39.4576 7.07663 38.8751 9.55274C38.2925 12.0288 39.8352 14.5066 42.3208 15.0869C44.8063 15.6672 47.2934 14.1303 47.8759 11.6542Z" fill="#FF4625"/>
<path d="M6.32542 14.8842C8.69804 13.9455 9.85757 11.2685 8.91531 8.90484C7.97305 6.54121 5.28581 5.38607 2.91319 6.32476C0.540574 7.26345 -0.618959 9.94051 0.323302 12.3041C1.26556 14.6678 3.9528 15.8229 6.32542 14.8842Z" fill="#C4F000"/>
</g>
<path d="M60.951 33L68.919 9.64H76.343L84.535 33H79.863L72.919 12.744L74.551 13.448H70.551L72.215 12.744L65.495 33H60.951ZM66.519 26.792L67.959 22.952H77.431L78.839 26.792H66.519ZM94.187 39.848C93.355 39.848 92.5017 39.816 91.627 39.752C90.7737 39.688 89.9737 39.6027 89.227 39.496V35.784C89.995 35.8693 90.8163 35.944 91.691 36.008C92.5657 36.0933 93.387 36.136 94.155 36.136C95.5843 36.136 96.7363 35.9653 97.611 35.624C98.507 35.2827 99.1577 34.7387 99.563 33.992C99.9897 33.2667 100.203 32.3387 100.203 31.208V27.784L101.163 25.608C101.099 27.208 100.768 28.5733 100.171 29.704C99.5737 30.8133 98.763 31.6667 97.739 32.264C96.715 32.84 95.531 33.128 94.187 33.128C92.9923 33.128 91.9043 32.904 90.923 32.456C89.963 32.008 89.131 31.3893 88.427 30.6C87.7443 29.8107 87.211 28.8827 86.827 27.816C86.443 26.7493 86.251 25.608 86.251 24.392V23.72C86.251 22.504 86.443 21.3733 86.827 20.328C87.2323 19.2613 87.7977 18.3333 88.523 17.544C89.2483 16.7547 90.1123 16.1467 91.115 15.72C92.1177 15.2933 93.227 15.08 94.443 15.08C95.8723 15.08 97.1097 15.3893 98.155 16.008C99.2217 16.6267 100.054 17.5227 100.651 18.696C101.248 19.8693 101.579 21.3093 101.643 23.016L100.875 23.144V15.624H104.395V30.952C104.395 33.064 104.032 34.7707 103.307 36.072C102.582 37.3733 101.462 38.3227 99.947 38.92C98.4537 39.5387 96.5337 39.848 94.187 39.848ZM95.467 29.32C96.3203 29.32 97.099 29.128 97.803 28.744C98.507 28.36 99.0723 27.8053 99.499 27.08C99.9257 26.3547 100.139 25.48 100.139 24.456V23.336C100.139 22.3547 99.915 21.5227 99.467 20.84C99.0403 20.1573 98.475 19.6453 97.771 19.304C97.067 18.9413 96.299 18.76 95.467 18.76C94.5283 18.76 93.6963 18.984 92.971 19.432C92.267 19.8587 91.7123 20.4667 91.307 21.256C90.9017 22.0453 90.699 22.984 90.699 24.072C90.699 25.1387 90.9017 26.0667 91.307 26.856C91.7123 27.6453 92.267 28.2533 92.971 28.68C93.6963 29.1067 94.5283 29.32 95.467 29.32ZM117.023 33.608C115.529 33.608 114.217 33.352 113.087 32.84C111.977 32.328 111.049 31.6453 110.303 30.792C109.577 29.9173 109.023 28.9467 108.639 27.88C108.276 26.8133 108.095 25.7253 108.095 24.616V24.008C108.095 22.856 108.276 21.7467 108.639 20.68C109.023 19.592 109.577 18.632 110.303 17.8C111.049 16.9467 111.967 16.2747 113.055 15.784C114.143 15.272 115.401 15.016 116.831 15.016C118.708 15.016 120.276 15.432 121.535 16.264C122.815 17.0747 123.775 18.152 124.415 19.496C125.055 20.8187 125.375 22.248 125.375 23.784V25.384H109.983V22.664H122.591L121.215 24.008C121.215 22.8987 121.055 21.9493 120.735 21.16C120.415 20.3707 119.924 19.7627 119.263 19.336C118.623 18.9093 117.812 18.696 116.831 18.696C115.849 18.696 115.017 18.92 114.335 19.368C113.652 19.816 113.129 20.4667 112.767 21.32C112.425 22.152 112.255 23.1547 112.255 24.328C112.255 25.416 112.425 26.3867 112.767 27.24C113.108 28.072 113.631 28.7333 114.335 29.224C115.039 29.6933 115.935 29.928 117.023 29.928C118.111 29.928 118.996 29.7147 119.679 29.288C120.361 28.84 120.799 28.296 120.991 27.656H125.087C124.831 28.8507 124.34 29.896 123.615 30.792C122.889 31.688 121.961 32.3813 120.831 32.872C119.721 33.3627 118.452 33.608 117.023 33.608ZM129.091 33V15.624H132.611V23.08H132.291C132.291 21.3093 132.525 19.8373 132.995 18.664C133.464 17.4693 134.157 16.5733 135.075 15.976C136.013 15.3787 137.176 15.08 138.563 15.08H138.755C140.824 15.08 142.392 15.752 143.458 17.096C144.525 18.4187 145.059 20.4027 145.059 23.048V33H140.611V22.664C140.611 21.5973 140.301 20.7333 139.683 20.072C139.085 19.4107 138.253 19.08 137.187 19.08C136.099 19.08 135.213 19.4213 134.531 20.104C133.869 20.7653 133.539 21.6613 133.539 22.792V33H129.091ZM149.841 39.4V15.624H153.361V23.112L152.817 23.08C152.902 21.3093 153.265 19.8267 153.905 18.632C154.566 17.4373 155.441 16.552 156.529 15.976C157.617 15.3787 158.833 15.08 160.177 15.08C161.414 15.08 162.523 15.304 163.505 15.752C164.507 16.2 165.361 16.8293 166.065 17.64C166.79 18.4507 167.345 19.4 167.729 20.488C168.113 21.5547 168.305 22.7067 168.305 23.944V24.616C168.305 25.8747 168.113 27.048 167.729 28.136C167.366 29.2027 166.822 30.152 166.097 30.984C165.393 31.7947 164.539 32.4347 163.537 32.904C162.534 33.352 161.414 33.576 160.177 33.576C158.875 33.576 157.681 33.3093 156.593 32.776C155.526 32.2213 154.662 31.3787 154.001 30.248C153.339 29.096 152.966 27.6133 152.881 25.8L154.289 27.944V39.4H149.841ZM159.057 29.832C160.017 29.832 160.849 29.5973 161.553 29.128C162.278 28.6587 162.843 28.008 163.249 27.176C163.654 26.3227 163.857 25.3627 163.857 24.296C163.857 23.1867 163.654 22.2267 163.249 21.416C162.843 20.6053 162.278 19.976 161.553 19.528C160.849 19.0587 160.017 18.824 159.057 18.824C158.182 18.824 157.371 19.016 156.625 19.4C155.899 19.784 155.302 20.3493 154.833 21.096C154.385 21.8427 154.161 22.7387 154.161 23.784V25.064C154.161 26.0667 154.395 26.92 154.865 27.624C155.334 28.328 155.942 28.872 156.689 29.256C157.435 29.64 158.225 29.832 159.057 29.832ZM172.216 33V15.624H175.736V22.984H175.64C175.64 20.488 176.173 18.6 177.24 17.32C178.306 16.04 179.874 15.4 181.944 15.4H182.584V19.272H181.368C179.874 19.272 178.712 19.6773 177.88 20.488C177.069 21.2773 176.664 22.4293 176.664 23.944V33H172.216ZM193.786 33.608C192.25 33.608 190.896 33.3627 189.722 32.872C188.549 32.3813 187.557 31.72 186.746 30.888C185.936 30.0347 185.317 29.0747 184.89 28.008C184.485 26.9413 184.282 25.832 184.282 24.68V24.008C184.282 22.8133 184.496 21.6827 184.922 20.616C185.37 19.528 186 18.568 186.81 17.736C187.642 16.8827 188.645 16.2213 189.818 15.752C190.992 15.2613 192.314 15.016 193.786 15.016C195.258 15.016 196.581 15.2613 197.754 15.752C198.928 16.2213 199.92 16.8827 200.73 17.736C201.562 18.568 202.192 19.528 202.618 20.616C203.045 21.6827 203.258 22.8133 203.258 24.008V24.68C203.258 25.832 203.045 26.9413 202.618 28.008C202.213 29.0747 201.605 30.0347 200.794 30.888C199.984 31.72 198.992 32.3813 197.818 32.872C196.645 33.3627 195.301 33.608 193.786 33.608ZM193.786 29.8C194.874 29.8 195.792 29.5653 196.538 29.096C197.285 28.6053 197.85 27.9547 198.234 27.144C198.618 26.312 198.81 25.3733 198.81 24.328C198.81 23.2613 198.608 22.3227 198.202 21.512C197.818 20.68 197.242 20.0293 196.474 19.56C195.728 19.0693 194.832 18.824 193.786 18.824C192.741 18.824 191.834 19.0693 191.066 19.56C190.32 20.0293 189.744 20.68 189.338 21.512C188.933 22.3227 188.73 23.2613 188.73 24.328C188.73 25.3733 188.922 26.312 189.306 27.144C189.712 27.9547 190.288 28.6053 191.034 29.096C191.781 29.5653 192.698 29.8 193.786 29.8Z" fill="white"/>
<defs>
<clipPath id="clip0_16316_785">
<rect width="48" height="33" fill="white" transform="translate(0 6)"/>
</clipPath>
</defs>
</svg>
